<svg width="40" height="40" viewBox="0 0 40 40" fill="none" xmlns="http://www.w3.org/2000/svg">
<g clip-path="url(#clip0)">
<circle cx="20" cy="20" r="20" fill="#C4C4C4"/>
<path d="M15.2441 29C13.916 29 12.8294 30.125 12.8294 31.5C12.8294 32.875 13.916 34 15.2441 34C16.5722 34 17.6588 32.875 17.6588 31.5C17.6588 30.125 16.5722 29 15.2441 29ZM8 9V11.5H10.4147L14.7611 21L13.0709 24C12.9501 24.375 12.8294 24.875 12.8294 25.25C12.8294 26.625 13.916 27.75 15.2441 27.75H29.7322V25.25H15.727C15.6063 25.25 15.4855 25.125 15.4855 25V24.875L16.5722 22.75H25.5065C26.4724 22.75 27.1968 22.25 27.559 21.5L31.9054 13.375C32.1469 13.125 32.1469 13 32.1469 12.75C32.1469 12 31.664 11.5 30.9396 11.5H13.0709L11.9842 9H8ZM27.3175 29C25.9895 29 24.9028 30.125 24.9028 31.5C24.9028 32.875 25.9895 34 27.3175 34C28.6456 34 29.7322 32.875 29.7322 31.5C29.7322 30.125 28.6456 29 27.3175 29Z" fill="#78909C"/>
</g>
<defs>
<clipPath id="clip0">
<rect width="40" height="40" fill="white"/>
</clipPath>
</defs>
</svg>
