<svg width="512" height="512" viewBox="0 0 512 512" fill="none" xmlns="http://www.w3.org/2000/svg">
<path d="M486.4 273.067H477.867V93.867C477.867 51.2 443.734 17.067 401.067 17.067C363.297 17.067 336.132 45.073 333.093 86.108C313.264 89.856 298.667 106.934 298.667 128C298.667 133.12 302.08 136.533 307.2 136.533H375.467C380.587 136.533 384 133.12 384 128C384 107.167 369.726 90.231 350.233 86.233C352.783 59.117 369.069 34.133 401.067 34.133C434.347 34.133 460.8 60.586 460.8 93.866V273.066H203.975C200.115 253.385 183.097 238.933 162.134 238.933C153.601 228.693 141.654 221.866 128.001 221.866C111.788 221.866 97.281 231.253 90.454 244.906C83.627 241.493 75.947 238.933 68.267 238.933C47.304 238.933 30.286 253.385 26.426 273.066H25.6C11.093 273.066 0 284.159 0 298.666C0 313.173 11.093 324.266 25.6 324.266H35.855L58.88 415.573C65.707 442.026 89.6 460.8 116.907 460.8H123.734L112.641 482.987C110.081 487.254 111.788 492.374 116.054 494.08C116.907 494.933 118.614 494.933 119.467 494.933C122.88 494.933 125.44 493.226 127.147 490.666L142.08 460.8H378.88L393.387 489.813C395.094 493.226 397.654 494.933 401.067 494.933C402.774 494.933 403.627 494.933 404.48 493.226C407.893 491.519 409.6 486.399 407.893 482.133L397.204 460.754C423.623 459.816 446.47 441.364 453.12 416.426L476.36 324.266H486.4C500.907 324.266 512 313.173 512 298.666C512 284.16 500.907 273.067 486.4 273.067ZM366.08 119.467H317.44C320.853 109.227 331.093 102.4 342.187 102.4C353.281 102.4 362.667 109.227 366.08 119.467ZM68.267 256C75.947 256 82.774 259.413 88.747 265.387C90.454 267.947 93.867 268.8 97.28 267.947C100.693 267.094 102.4 264.534 103.253 261.12C105.813 248.32 116.053 238.933 128.853 238.933C138.24 238.933 146.773 243.2 151.04 251.733C152.747 255.146 157.013 256.853 160.427 256C161.28 256 162.134 256 162.987 256C174.08 256 183.467 262.827 186.88 273.067H44.373C47.787 262.827 57.173 256 68.267 256ZM437.76 411.307C432.64 430.08 415.573 443.734 395.947 443.734H117.76C98.133 443.734 81.067 430.081 75.947 411.307L53.76 324.267H458.24L437.76 411.307ZM486.4 307.2H25.6C20.48 307.2 17.067 303.787 17.067 298.667C17.067 293.547 20.48 290.134 25.6 290.134H486.4C491.52 290.134 494.933 293.547 494.933 298.667C494.933 303.787 491.52 307.2 486.4 307.2Z" fill="black"/>
<path d="M307.2 174.933C312.32 174.933 315.733 171.52 315.733 166.4V162.133C315.733 157.013 312.32 153.6 307.2 153.6C302.08 153.6 298.667 157.013 298.667 162.133V166.4C298.667 171.52 302.08 174.933 307.2 174.933Z" fill="black"/>
<path d="M307.2 214.187C312.32 214.187 315.733 209.92 315.733 205.654V196.267C315.733 191.147 312.32 187.734 307.2 187.734C302.08 187.734 298.667 191.147 298.667 196.267V205.654C298.667 210.773 302.08 214.187 307.2 214.187Z" fill="black"/>
<path d="M307.2 247.467C312.32 247.467 315.733 244.054 315.733 238.934V234.667C315.733 229.547 312.32 226.134 307.2 226.134C302.08 226.134 298.667 229.547 298.667 234.667V238.934C298.667 244.053 302.08 247.467 307.2 247.467Z" fill="black"/>
<path d="M341.333 174.933C346.453 174.933 349.866 171.52 349.866 166.4V162.133C349.866 157.013 346.453 153.6 341.333 153.6C336.213 153.6 332.8 157.013 332.8 162.133V166.4C332.8 171.52 336.213 174.933 341.333 174.933Z" fill="black"/>
<path d="M332.8 205.653C332.8 210.773 336.213 214.186 341.333 214.186C346.453 214.186 349.866 209.919 349.866 205.653V196.266C349.866 191.146 346.453 187.733 341.333 187.733C336.213 187.733 332.8 191.146 332.8 196.266V205.653Z" fill="black"/>
<path d="M332.8 238.933C332.8 244.053 336.213 247.466 341.333 247.466C346.453 247.466 349.866 244.053 349.866 238.933V234.666C349.866 229.546 346.453 226.133 341.333 226.133C336.213 226.133 332.8 229.546 332.8 234.666V238.933Z" fill="black"/>
<path d="M375.467 174.933C380.587 174.933 384 171.52 384 166.4V162.133C384 157.013 380.587 153.6 375.467 153.6C370.347 153.6 366.934 157.013 366.934 162.133V166.4C366.933 171.52 370.347 174.933 375.467 174.933Z" fill="black"/>
<path d="M366.933 205.653C366.933 210.773 370.346 214.186 375.466 214.186C380.586 214.186 384 209.92 384 205.653V196.266C384 191.146 380.587 187.733 375.467 187.733C370.347 187.733 366.934 191.146 366.934 196.266L366.933 205.653Z" fill="black"/>
<path d="M366.933 238.933C366.933 244.053 370.346 247.466 375.466 247.466C380.586 247.466 383.999 244.053 383.999 238.933V234.666C383.999 229.546 380.586 226.133 375.466 226.133C370.346 226.133 366.933 229.546 366.933 234.666V238.933Z" fill="black"/>
</svg>
