<svg width="34" height="34" viewBox="0 0 34 34" fill="none" xmlns="http://www.w3.org/2000/svg">
<path d="M33.3858 7.56774L30.4026 4.58456C29.9936 4.17521 29.4961 3.97046 28.9114 3.97046C28.3261 3.97046 27.8286 4.17521 27.4196 4.58456L13.0297 18.9962L6.5806 12.5251C6.1711 12.1156 5.67393 11.9111 5.08917 11.9111C4.50403 11.9111 4.00686 12.1156 3.59735 12.5251L0.614182 15.5084C0.204676 15.9178 0 16.4151 0 17.0002C0 17.5848 0.204676 18.0826 0.614182 18.4919L8.55468 26.4323L11.5381 29.4155C11.9474 29.8251 12.4447 30.0296 13.0297 30.0296C13.6144 30.0296 14.1118 29.8246 14.5213 29.4155L17.5046 26.4323L33.3858 10.5511C33.7949 10.1416 34 9.64439 34 9.05932C34.0003 8.47457 33.7949 7.97724 33.3858 7.56774Z" fill="#0047BB"/>
</svg>
