<?xml version="1.0" encoding="utf-8"?>
<!-- Generator: Adobe Illustrator 16.0.0, SVG Export Plug-In . SVG Version: 6.00 Build 0)  -->
<!DOCTYPE svg PUBLIC "-//W3C//DTD SVG 1.1//EN" "http://www.w3.org/Graphics/SVG/1.1/DTD/svg11.dtd">
<svg version="1.1" id="Слой_1" xmlns="http://www.w3.org/2000/svg" xmlns:xlink="http://www.w3.org/1999/xlink" x="0px" y="0px"
	 width="542.339px" height="148.389px" viewBox="0 0 542.339 148.389" enable-background="new 0 0 542.339 148.389"
	 xml:space="preserve">
<g>
	<path fill="#231F20" d="M146.77,141.238c0,3.536-2.867,6.403-6.403,6.403c-3.536,0-6.403-2.867-6.403-6.403V6.403
		c0-3.536,2.867-6.403,6.403-6.403h71.438c11.136,0,21.218,4.516,28.516,11.813c7.298,7.298,11.813,17.381,11.813,28.516
		s-4.515,21.218-11.813,28.516c-7.298,7.299-17.38,11.814-28.516,11.814h-3.951l42.031,56.778c2.099,2.831,1.506,6.829-1.326,8.928
		c-2.832,2.1-6.83,1.506-8.929-1.325l-49.29-66.583c-0.979-1.124-1.571-2.594-1.571-4.201c0-3.535,2.867-6.402,6.402-6.402h16.633
		c7.601,0,14.483-3.082,19.463-8.062s8.061-11.861,8.061-19.463c0-7.601-3.081-14.482-8.061-19.463s-11.862-8.061-19.463-8.061
		H146.77V141.238L146.77,141.238z"/>
	<path fill="#231F20" d="M277.64,141.238c0,3.536-2.867,6.403-6.403,6.403c-3.536,0-6.403-2.867-6.403-6.403V6.403
		c0-3.536,2.867-6.403,6.403-6.403h71.438c11.135,0,21.219,4.516,28.516,11.813c7.299,7.298,11.813,17.381,11.813,28.516
		s-4.516,21.218-11.813,28.516c-7.297,7.299-17.381,11.814-28.516,11.814h-3.953l42.031,56.778c2.1,2.831,1.506,6.829-1.324,8.928
		c-2.832,2.1-6.83,1.506-8.93-1.325L321.21,78.457c-0.979-1.124-1.572-2.594-1.572-4.201c0-3.535,2.867-6.402,6.404-6.402h16.633
		c7.602,0,14.482-3.082,19.461-8.062c4.98-4.979,8.063-11.861,8.063-19.463c0-7.601-3.08-14.482-8.063-19.463
		c-4.979-4.979-11.859-8.061-19.461-8.061H277.64V141.238L277.64,141.238z"/>
	<path fill="#231F20" d="M409.244,144.064c-1.563,3.163-5.393,4.462-8.555,2.9c-3.162-1.561-4.461-5.391-2.9-8.554L464.337,3.576
		c1.561-3.163,5.391-4.461,8.553-2.901c1.313,0.647,2.303,1.684,2.9,2.901h0.002l66.547,134.836c1.561,3.163,0.262,6.993-2.9,8.554
		c-3.162,1.562-6.994,0.263-8.555-2.9L470.062,20.833L409.244,144.064L409.244,144.064z"/>
	<path fill="#231F20" d="M6.403,12.805C2.867,12.805,0,9.938,0,6.403C0,2.867,2.867,0,6.403,0h106.999
		c3.536,0,6.402,2.867,6.402,6.403s-2.867,6.402-6.402,6.402H6.403L6.403,12.805z"/>
	<path fill="#231F20" d="M6.403,147.642c-3.536,0-6.403-2.867-6.403-6.403s2.867-6.402,6.403-6.402h106.999
		c3.536,0,6.402,2.866,6.402,6.402s-2.867,6.403-6.402,6.403H6.403L6.403,147.642z"/>
	<path fill="#0047BB" d="M6.403,80.224C2.867,80.224,0,77.356,0,73.82s2.867-6.402,6.403-6.402h44.366
		c3.536,0,6.402,2.867,6.402,6.402c0,3.536-2.867,6.403-6.402,6.403L6.403,80.224L6.403,80.224z"/>
	<polygon fill="#0047BB" points="470.062,94.211 445.814,148.388 470.062,148.388 494.312,148.388 	"/>
</g>
</svg>
