<svg width="120" height="120" viewBox="0 0 120 120" fill="none" xmlns="http://www.w3.org/2000/svg">
<g clip-path="url(#clip0)">
<path d="M110.992 13.605H9.00963C4.04162 13.605 0 17.6466 0 22.6134V67.7543C0 72.7211 4.04162 76.764 9.00963 76.764H33.8063C37.8973 83.1498 37.8539 91.2957 33.6328 97.6274L30.0743 102.965C29.4286 103.933 29.69 105.238 30.6573 105.884C31.0175 106.124 31.4223 106.238 31.8234 106.238C32.5041 106.238 33.1714 105.909 33.5774 105.301L37.136 99.9632C41.8016 92.9678 42.2967 84.1545 38.6478 76.764H61.1749C65.2659 83.151 65.2225 91.2969 61.0014 97.6274L57.4429 102.965C56.796 103.933 57.0586 105.238 58.0259 105.885C58.3861 106.124 58.7909 106.238 59.192 106.238C59.8727 106.238 60.54 105.909 60.946 105.301L64.5046 99.9632C69.169 92.969 69.6653 84.1557 66.0152 76.764H88.5423C92.6333 83.151 92.5911 91.2969 88.37 97.6286L84.8103 102.965C84.1646 103.934 84.426 105.24 85.3945 105.885C85.7547 106.125 86.1595 106.24 86.5606 106.24C87.2401 106.24 87.9087 105.911 88.3134 105.301L91.8732 99.9644C96.5376 92.969 97.0339 84.1557 93.3838 76.7652H110.991C115.958 76.7652 120 72.7223 120 67.7555V22.6134C120.002 17.6466 115.959 13.605 110.992 13.605ZM115.79 67.7543C115.79 70.3997 113.639 72.5525 110.992 72.5525H90.9865C89.494 69.7806 88.6688 66.7111 88.6688 63.5368V55.7102H94.7174C95.4281 55.7102 96.0907 55.3512 96.4786 54.7573C96.8677 54.1634 96.9315 53.4129 96.646 52.7624L88.823 34.8684C88.4881 34.101 87.7316 33.6059 86.8943 33.6059C86.0583 33.6059 85.3018 34.101 84.9669 34.8672L77.1414 52.7612C76.8559 53.4129 76.9198 54.1634 77.3077 54.7573C77.6968 55.3512 78.3581 55.7102 79.0689 55.7102H84.4585V63.5368C84.4585 66.6605 85.0922 69.7119 86.2884 72.5525H63.6179C62.1242 69.7806 61.299 66.7111 61.299 63.5368V55.7102H67.3476C68.0595 55.7102 68.7209 55.3512 69.11 54.7573C69.4991 54.1634 69.5617 53.4129 69.2762 52.7624L61.4544 34.8684C61.1195 34.101 60.363 33.6059 59.5257 33.6059C58.6897 33.6059 57.9332 34.101 57.5971 34.8672L49.7728 52.7612C49.4873 53.4129 49.5512 54.1634 49.9391 54.7573C50.327 55.3512 50.9895 55.7102 51.7003 55.7102H57.0887V63.5368C57.0887 66.6605 57.7236 69.7119 58.9198 72.5525H36.2493C34.7556 69.7806 33.9304 66.7111 33.9304 63.5368V55.7102H39.979C40.6909 55.7102 41.3523 55.3512 41.7414 54.7573C42.1305 54.1634 42.1931 53.4129 41.9076 52.7624L34.0858 34.8684C33.7509 34.101 32.9944 33.6059 32.1571 33.6059C31.3199 33.6059 30.5646 34.101 30.2285 34.8672L22.4042 52.7612C22.1187 53.4129 22.1814 54.1634 22.5705 54.7573C22.9584 55.3512 23.6209 55.7102 24.3317 55.7102H29.7201V63.5368C29.7201 66.6605 30.3549 69.7119 31.55 72.5525H9.00963C6.363 72.5525 4.21028 70.3997 4.21028 67.7543V22.6134C4.21028 19.968 6.363 17.8153 9.00963 17.8153H110.992C113.639 17.8153 115.79 19.968 115.79 22.6134V67.7543ZM82.2877 51.4999L86.8943 40.9664L91.4997 51.4999H82.2877ZM54.9191 51.4999L59.5257 40.9664L64.1311 51.4999H54.9191ZM27.5493 51.4999L32.1571 40.9664L36.7625 51.4999H27.5493Z" fill="white"/>
</g>
<defs>
<clipPath id="clip0">
<rect width="120" height="120" fill="white"/>
</clipPath>
</defs>
</svg>
