<?xml version="1.0" encoding="UTF-8"?>
<!DOCTYPE svg PUBLIC "-//W3C//DTD SVG 1.1//EN" "http://www.w3.org/Graphics/SVG/1.1/DTD/svg11.dtd">
<!-- Creator: CorelDRAW X6 -->
<svg xmlns="http://www.w3.org/2000/svg" xml:space="preserve" width="2262px" height="618px" version="1.1" style="shape-rendering:geometricPrecision; text-rendering:geometricPrecision; image-rendering:optimizeQuality; fill-rule:evenodd; clip-rule:evenodd"
viewBox="0 0 22620 6181"
 xmlns:xlink="http://www.w3.org/1999/xlink">
 <defs>
  <style type="text/css">
   <![CDATA[
    .fil0 {fill:#FEFEFE;fill-rule:nonzero}
   ]]>
  </style>
 </defs>
 <g id="Слой_x0020_1">
  <metadata id="CorelCorpID_0Corel-Layer"/>
  <path class="fil0" d="M6114 5884c0,147 -119,266 -267,266 -147,0 -266,-119 -266,-266l0 -5617c0,-148 119,-267 266,-267l2976 0c464,0 884,188 1188,492 304,304 492,724 492,1188 0,464 -188,884 -492,1188 -304,304 -724,492 -1188,492l-164 0 1751 2365c87,118 62,285 -56,372 -118,88 -284,63 -372,-55l-2053 -2774c-41,-47 -65,-108 -65,-175 0,-147 119,-266 266,-266l693 0c317,0 604,-129 811,-336 207,-208 336,-494 336,-811 0,-317 -129,-603 -336,-811 -207,-207 -494,-336 -811,-336l-2709 0 0 5351zm13468 -1959l-1011 2256 1011 0 1010 0 -1010 -2256zm-19315 -583c-148,0 -267,-120 -267,-267 0,-147 119,-267 267,-267l1848 0c147,0 267,120 267,267 0,147 -120,267 -267,267l-1848 0zm0 2808c-148,0 -267,-119 -267,-266 0,-148 119,-267 267,-267l4457 0c147,0 267,119 267,267 0,147 -120,266 -267,266l-4457 0zm0 -5617c-148,0 -267,-119 -267,-266 0,-148 119,-267 267,-267l4457 0c147,0 267,119 267,267 0,147 -120,266 -267,266l-4457 0zm16781 5468c-65,132 -225,186 -356,121 -132,-65 -186,-224 -121,-356l2772 -5617c65,-132 225,-186 356,-121 55,27 96,70 121,121l0 0 2772 5617c65,132 11,291 -120,356 -132,65 -292,11 -357,-121l-2533 -5133 -2534 5133zm-5482 -117c0,147 -120,266 -267,266 -147,0 -267,-119 -267,-266l0 -5617c0,-148 120,-267 267,-267l2976 0c464,0 884,188 1188,492 304,304 492,724 492,1188 0,464 -188,884 -492,1188 -304,304 -724,492 -1188,492l-165 0 1751 2365c88,118 63,285 -55,372 -118,88 -284,63 -372,-55l-2053 -2774c-41,-47 -66,-108 -66,-175 0,-147 120,-266 267,-266l693 0c317,0 603,-129 811,-336 207,-208 336,-494 336,-811 0,-317 -129,-603 -336,-811 -208,-207 -494,-336 -811,-336l-2709 0 0 5351z"/>
 </g>
</svg>
