<svg width="512" height="512" viewBox="0 0 512 512" fill="none" xmlns="http://www.w3.org/2000/svg">
<g clip-path="url(#clip0)">
<path d="M511.013 279.65C506.416 233.411 485.759 189.82 452.844 156.904C424.716 128.777 390.287 110.702 354.061 102.664V77.256C368.857 73.5749 379.855 60.1817 379.855 44.2625C379.855 25.5142 364.603 10.262 345.854 10.262H273.853C255.105 10.262 239.853 25.5142 239.853 44.2625C239.853 60.1807 250.851 73.5739 265.646 77.256V102.735C229.531 110.807 195.216 128.857 167.168 156.905C161.03 163.043 155.369 169.482 150.188 176.175C149.937 176.156 149.686 176.137 149.43 176.137H78.1682C72.6461 176.137 68.1681 180.614 68.1681 186.137C68.1681 191.66 72.6461 196.137 78.1682 196.137H136.581C129.249 208.412 123.337 221.303 118.837 234.573H10.0002C4.47807 234.573 0 239.051 0 244.574C0 250.097 4.47807 254.574 10.0002 254.574H113.186C110.304 267.225 108.65 280.1 108.223 293.011H64.001C58.4789 293.011 54.0008 297.488 54.0008 303.012C54.0008 308.535 58.4789 313.012 64.001 313.012H108.542C109.386 325.956 111.467 338.832 114.786 351.449H50.0008C44.4787 351.449 40.0006 355.926 40.0006 361.449C40.0006 366.973 44.4787 371.45 50.0008 371.45H121.168C130.978 397.401 146.309 421.724 167.168 442.583C200.114 475.529 243.751 496.192 290.038 500.765C296.644 501.417 303.255 501.74 309.857 501.74C348.879 501.74 387.406 490.446 420.097 469.158C424.725 466.144 426.034 459.949 423.02 455.321C420.006 450.693 413.81 449.384 409.182 452.398C337.624 498.996 241.79 488.92 181.31 428.44C110.347 357.477 110.347 242.013 181.31 171.048C252.272 100.086 367.737 100.086 438.701 171.048C499.101 231.449 509.231 327.202 462.787 398.725C459.779 403.357 461.096 409.551 465.727 412.558C470.361 415.566 476.553 414.249 479.56 409.617C504.375 371.402 515.545 325.246 511.013 279.65ZM259.853 44.2635C259.853 36.5434 266.133 30.2633 273.853 30.2633H345.854C353.575 30.2633 359.855 36.5434 359.855 44.2635C359.855 51.9836 353.575 58.2637 345.854 58.2637H273.853C266.133 58.2637 259.853 51.9826 259.853 44.2635ZM285.646 99.2973V78.264H334.06V99.2614C317.984 97.3493 301.72 97.3613 285.646 99.2973Z" fill="black"/>
<path d="M445.777 425.507C443.137 425.507 440.567 426.577 438.708 428.437C436.838 430.297 435.777 432.877 435.777 435.507C435.777 438.137 436.838 440.717 438.708 442.577C440.567 444.447 443.138 445.507 445.777 445.507C448.407 445.507 450.977 444.447 452.847 442.577C454.707 440.717 455.777 438.137 455.777 435.507C455.777 432.877 454.708 430.297 452.847 428.437C450.977 426.577 448.406 425.507 445.777 425.507Z" fill="black"/>
<path d="M310.006 144.611C224.467 144.611 154.874 214.202 154.874 299.743C154.874 385.283 224.467 454.874 310.006 454.874C395.545 454.874 465.137 385.283 465.137 299.743C465.137 214.202 395.545 144.611 310.006 144.611ZM310.006 434.874C235.494 434.874 174.875 374.254 174.875 299.743C174.875 225.231 235.494 164.612 310.006 164.612C384.518 164.612 445.137 225.231 445.137 299.743C445.137 374.254 384.518 434.874 310.006 434.874Z" fill="black"/>
<path d="M373.263 222.343L323.732 271.873C319.59 269.825 314.931 268.668 310.006 268.668C305.08 268.668 300.422 269.825 296.28 271.873L274.112 249.706C270.206 245.801 263.876 245.801 259.969 249.706C256.064 253.611 256.064 259.943 259.969 263.848L282.136 286.015C280.087 290.157 278.931 294.817 278.931 299.742C278.931 316.876 292.871 330.816 310.006 330.816C327.141 330.816 341.08 316.876 341.08 299.742C341.08 294.817 339.923 290.157 337.875 286.015L387.405 236.486C391.31 232.581 391.31 226.249 387.405 222.343C383.5 218.438 377.17 218.438 373.263 222.343ZM310.006 310.817C303.9 310.817 298.932 305.849 298.932 299.743C298.932 293.637 303.9 288.668 310.006 288.668C316.112 288.668 321.08 293.637 321.08 299.743C321.08 305.849 316.112 310.817 310.006 310.817Z" fill="black"/>
<path d="M416.926 289.864H407.661C402.139 289.864 397.661 294.341 397.661 299.864C397.661 305.387 402.139 309.864 407.661 309.864H416.926C422.448 309.864 426.926 305.387 426.926 299.864C426.926 294.341 422.448 289.864 416.926 289.864Z" fill="black"/>
<path d="M212.349 289.62H203.085C197.563 289.62 193.085 294.097 193.085 299.62C193.085 305.143 197.563 309.62 203.085 309.62H212.349C217.871 309.62 222.349 305.143 222.349 299.62C222.349 294.097 217.871 289.62 212.349 289.62Z" fill="black"/>
<path d="M310.128 212.086C315.65 212.086 320.128 207.609 320.128 202.086V192.822C320.128 187.299 315.65 182.822 310.128 182.822C304.606 182.822 300.128 187.299 300.128 192.822V202.086C300.128 207.609 304.606 212.086 310.128 212.086Z" fill="black"/>
<path d="M309.884 387.399C304.362 387.399 299.884 391.876 299.884 397.399V406.663C299.884 412.186 304.362 416.663 309.884 416.663C315.406 416.663 319.884 412.186 319.884 406.663V397.399C319.884 391.876 315.406 387.399 309.884 387.399Z" fill="black"/>
<path d="M10 351.445C7.37 351.445 4.79 352.515 2.93 354.375C1.07 356.235 2.25973e-06 358.815 2.25973e-06 361.445C2.25973e-06 364.085 1.069 366.655 2.93 368.515C4.791 370.375 7.37 371.445 10 371.445C12.63 371.445 15.21 370.375 17.069 368.515C18.929 366.655 20 364.075 20 361.445C20 358.815 18.93 356.235 17.069 354.375C15.21 352.515 12.63 351.445 10 351.445Z" fill="black"/>
</g>
<defs>
<clipPath id="clip0">
<rect width="512" height="512" fill="white"/>
</clipPath>
</defs>
</svg>
