<svg width="120" height="120" viewBox="0 0 120 120" fill="none" xmlns="http://www.w3.org/2000/svg">
<path d="M120 2.76289L117.237 0L61.954 55.2832V24.8289C61.954 23.7498 61.0791 22.8749 60 22.8749H54.1381C40.9968 22.8925 29.0992 30.6494 23.7815 42.6665C23.5053 42.5075 23.1934 42.421 22.8749 42.4144H3.3354C2.25633 42.4144 1.38144 43.2893 1.38144 44.3684V75.6316C1.38144 76.7107 2.25633 77.5856 3.3354 77.5856H22.8749C23.1934 77.5782 23.5051 77.4915 23.7815 77.3335C25.3645 80.9002 27.5632 84.1604 30.2765 86.9645L0 117.237L2.76289 120L33.1429 89.6219C39.0612 94.4787 46.4821 97.1307 54.1381 97.1251H60C61.0791 97.1251 61.954 96.2502 61.954 95.1711V60.8089L77.7438 45.0191C85.9302 53.4445 85.8432 66.8791 77.5484 75.1978L80.3133 77.9607C90.1302 68.1148 90.2171 52.2091 80.5087 42.2562L88.7973 33.9675C103.079 48.502 102.991 71.826 88.602 86.2533L91.3609 89.0162C107.275 73.0624 107.362 47.2656 91.5563 31.2046L99.8606 22.9081C120.237 43.5526 120.15 76.7676 99.6652 97.3048L102.428 100.068C124.432 78.0042 124.519 42.3219 102.624 20.1511L120 2.76289ZM20.921 73.6777H5.28935V46.3223H20.921V73.6777ZM58.046 93.2172H54.1381C47.5199 93.2184 41.098 90.9672 35.9293 86.8336L58.046 64.7168V93.2172ZM58.046 59.1911L33.0355 84.2016C27.7708 78.7579 24.8281 71.4809 24.8289 63.9079V56.0921C24.8472 39.9126 37.9587 26.8011 54.1381 26.7828H58.046V59.1911Z" fill="white"/>
</svg>
