<svg width="512" height="512" viewBox="0 0 512 512" fill="none" xmlns="http://www.w3.org/2000/svg">
<path d="M486.4 424.96C435.47 397.952 396.404 382.808 361.628 377.002L365.227 372.054C366.934 370.347 367.787 367.787 366.934 365.227L358.937 333.24C361.835 329.143 364.569 324.907 367.13 320.552C398.93 309.729 415.011 291.434 417.713 264.498C431.681 263.77 443.733 251.303 443.733 237.227V173.227C443.733 159.215 432.586 146.798 417.983 145.967C416.104 96.671 394.368 0 256 0C117.629 0 95.895 96.675 94.016 145.97C80.163 146.788 68.267 158.419 68.267 173.226V237.226C68.267 251.733 81.067 264.533 96.427 264.533H109.227C113.931 264.533 118.452 263.181 122.39 260.867C127.229 286.552 137.908 311.815 153.064 333.239L145.067 365.226C145.067 366.933 145.067 369.493 146.774 372.053L150.373 377.001C115.597 382.808 76.531 397.951 25.601 424.959C9.387 432.64 0 448.853 0 466.773V503.466C0 508.587 3.413 512 8.533 512H503.466C508.586 512 511.999 508.587 511.999 503.467V466.774C512 449.707 501.76 433.493 486.4 424.96ZM256.047 405.441L276.48 452.267H235.235L256.047 405.441ZM229.035 469.333H282.932L287.927 494.933H223.914L229.035 469.333ZM345.6 349.867L349.013 365.227L340.296 377.196C339.74 377.651 339.225 378.202 338.773 378.88L303.278 428.027L292.016 443.491L269.011 391.73C297.069 388.308 322.055 374.008 342.088 353.518C343.272 352.324 344.444 351.111 345.6 349.867ZM378.921 296.784C383.734 285.073 387.362 272.9 389.656 260.63C392.905 262.598 396.604 263.913 400.592 264.359C399.113 276.421 393.754 287.809 378.921 296.784ZM425.813 172.373V236.373C425.813 241.493 421.546 246.613 415.573 246.613H402.773C397.653 246.613 392.533 242.346 392.533 236.373V172.373C392.533 167.253 396.8 162.133 402.773 162.133H415.573C420.693 162.133 425.813 166.4 425.813 172.373ZM256 17.067C308.597 17.067 397.118 34.237 400.924 146.059C397.348 146.426 393.923 147.513 390.825 149.183C380.441 84.202 323.787 34.133 256 34.133C188.222 34.133 131.574 84.188 121.179 149.155C118.127 147.507 114.719 146.418 111.075 146.056C114.883 34.237 203.404 17.067 256 17.067ZM118.613 236.373C118.613 241.493 114.346 246.613 108.373 246.613H95.573C90.453 246.613 85.333 242.346 85.333 236.373V172.373C85.333 167.253 89.6 162.133 95.573 162.133H108.373C113.493 162.133 118.613 166.4 118.613 172.373V236.373ZM136.533 170.667C136.533 104.96 190.293 51.2 256 51.2C321.707 51.2 375.467 104.96 375.467 170.667V230.4C375.467 258.632 368.117 284.479 356.201 306.287C335.833 312.195 306.532 315.733 264.534 315.733C259.414 315.733 256.001 319.146 256.001 324.266C256.001 329.386 259.414 332.799 264.534 332.799C295.279 332.799 320.992 330.911 342.049 326.964C341.526 327.487 341.003 328.01 340.48 328.533C336.187 334.257 331.656 339.476 326.922 344.182C306.829 362.901 282.864 374.24 259.77 375.363C258.608 374.864 257.305 374.613 256 374.613C254.688 374.613 253.506 374.87 252.446 375.374C238.31 374.726 223.843 370.245 210.13 362.581C196.237 354.599 183.168 343.092 171.52 328.533C170.667 327.68 169.813 326.826 168.96 325.973L168.462 325.807C149.298 300.673 136.533 267.608 136.533 230.4V170.667ZM242.988 391.73L219.983 443.491L208.721 428.027L173.226 378.88C172.954 378.608 172.654 378.339 172.342 378.074L162.986 365.227L166.399 349.867C167.554 351.111 168.726 352.323 169.908 353.516C189.942 374.006 214.93 388.307 242.988 391.73ZM17.067 466.773C17.067 455.68 23.04 445.44 33.28 440.32C87.673 411.424 126.828 396.921 161.708 392.589L212.63 462.607L206.165 494.933H17.067V466.773ZM494.933 494.933H305.835L299.37 462.607L350.844 391.83C385.601 397.075 425.459 411.567 478.721 439.466C488.961 445.439 494.934 455.679 494.934 466.773L494.933 494.933Z" fill="black"/>
</svg>
