<svg width="512" height="512" viewBox="0 0 512 512" fill="none" xmlns="http://www.w3.org/2000/svg">
<path d="M87.7578 98.6367H177.281C185.562 98.6367 192.281 105.352 192.281 113.637C192.281 121.922 185.562 128.637 177.281 128.637H87.7578C79.4727 128.637 72.7578 121.922 72.7578 113.637C72.7578 105.352 79.4727 98.6367 87.7578 98.6367Z" fill="black"/>
<path d="M87.7578 158.641H177.281C185.562 158.641 192.281 165.355 192.281 173.641C192.281 181.926 185.562 188.641 177.281 188.641H87.7578C79.4727 188.641 72.7578 181.926 72.7578 173.641C72.7578 165.355 79.4727 158.641 87.7578 158.641Z" fill="black"/>
<path d="M177.281 218.645H87.7578C79.4727 218.645 72.7578 225.359 72.7578 233.645C72.7578 241.93 79.4727 248.645 87.7578 248.645H177.281C185.562 248.645 192.281 241.93 192.281 233.645C192.281 225.359 185.562 218.645 177.281 218.645Z" fill="black"/>
<path d="M87.7578 278.648H177.281C185.562 278.648 192.281 285.363 192.281 293.648C192.281 301.934 185.562 308.648 177.281 308.648H87.7578C79.4727 308.648 72.7578 301.934 72.7578 293.648C72.7578 285.363 79.4727 278.648 87.7578 278.648Z" fill="black"/>
<path d="M177.281 339.656H87.7578C79.4727 339.656 72.7578 346.375 72.7578 354.656C72.7578 362.941 79.4727 369.656 87.7578 369.656H177.281C185.562 369.656 192.281 362.941 192.281 354.656C192.281 346.375 185.562 339.656 177.281 339.656Z" fill="black"/>
<path d="M317.18 128.637H227.656C219.375 128.637 212.656 121.922 212.656 113.637C212.656 105.352 219.375 98.6367 227.656 98.6367H317.18C325.465 98.6367 332.18 105.352 332.18 113.637C332.18 121.922 325.465 128.637 317.18 128.637Z" fill="black"/>
<path d="M227.656 188.641H317.18C325.465 188.641 332.18 181.926 332.18 173.641C332.18 165.355 325.465 158.641 317.18 158.641H227.656C219.375 158.641 212.656 165.355 212.656 173.641C212.656 181.926 219.375 188.641 227.656 188.641Z" fill="black"/>
<path d="M270.773 218.645C279.059 218.645 285.773 225.359 285.773 233.645C285.773 241.93 279.059 248.645 270.773 248.645H227.656C219.375 248.645 212.656 241.93 212.656 233.645C212.656 225.359 219.375 218.645 227.656 218.645H270.773Z" fill="black"/>
<path d="M427.871 345.988C421.41 340.805 411.973 341.84 406.785 348.301L368.152 396.465L344.234 379.137C337.527 374.274 328.145 375.774 323.285 382.481C318.426 389.191 319.926 398.57 326.633 403.43L362.113 429.137C364.77 431.059 367.848 431.992 370.906 431.992C375.309 431.992 379.66 430.059 382.613 426.375L430.187 367.074C435.371 360.613 434.336 351.172 427.871 345.988Z" fill="black"/>
<path fill-rule="evenodd" clip-rule="evenodd" d="M393.938 263.836C421.141 267.527 446.246 280.059 465.785 299.941C488.84 323.395 501.535 354.434 501.535 387.34C501.535 456.078 445.652 512 376.961 512C340.059 512 305.949 496.164 282.227 468.297H71.4102C38.1016 468.297 11 441.195 11 407.883V60.4102C11 27.1016 38.1016 0 71.4141 0H333.527C366.836 0 393.938 27.1016 393.938 60.4102V263.836ZM41 60.4102V407.883C41 424.652 54.6445 438.293 71.4141 438.293H263.238C256.105 422.414 252.387 405.172 252.387 387.34C252.387 323 301.344 269.895 363.938 263.359V60.4102C363.938 43.6445 350.297 30 333.527 30H71.4141C54.6445 30 41 43.6445 41 60.4102ZM301.398 444.27C319.465 468.246 347.004 482 376.961 482C429.109 482 471.535 439.535 471.535 387.34C471.535 362.352 461.895 338.777 444.391 320.969C426.906 303.18 403.566 293.141 378.672 292.699L378.441 292.695C377.949 292.688 377.453 292.68 376.961 292.68C324.812 292.68 282.383 335.145 282.383 387.34C282.383 408.074 288.961 427.758 301.398 444.27Z" fill="black"/>
</svg>
