<svg width="474" height="474" viewBox="0 0 474 474" fill="none" xmlns="http://www.w3.org/2000/svg">
<g clip-path="url(#clip0)">
<path d="M454.8 111.7C454.8 109.9 454.4 108.1 453.6 106.4C452 103 448.9 100.7 445.5 100L241.8 1.2C238.5 -0.4 234.6 -0.4 231.3 1.2L25.5998 100.9C21.5998 102.8 18.9998 106.8 18.7998 111.3V111.4C18.7998 111.5 18.7998 111.6 18.7998 111.8V362C18.7998 366.6 21.3998 370.8 25.5998 372.8L231.3 472.5C231.4 472.5 231.4 472.5 231.5 472.6C231.8 472.7 232.1 472.8 232.4 473C232.5 473 232.6 473.1 232.8 473.1C233.1 473.2 233.4 473.3 233.7 473.4C233.8 473.4 233.9 473.5 234 473.5C234.3 473.6 234.7 473.6 235 473.7C235.1 473.7 235.2 473.7 235.3 473.7C235.7 473.7 236.2 473.8 236.6 473.8C237 473.8 237.5 473.8 237.9 473.7C238 473.7 238.1 473.7 238.2 473.7C238.5 473.7 238.9 473.6 239.2 473.5C239.3 473.5 239.4 473.4 239.5 473.4C239.8 473.3 240.1 473.2 240.4 473.1C240.5 473.1 240.6 473 240.8 473C241.1 472.9 241.4 472.8 241.7 472.6C241.8 472.6 241.8 472.6 241.9 472.5L448.2 372.5C452.3 370.5 455 366.3 455 361.7V112C454.8 111.9 454.8 111.8 454.8 111.7ZM236.5 25.3L414.9 111.8L349.2 143.7L170.8 57.2L236.5 25.3ZM236.5 198.3L58.0998 111.8L143.3 70.5L321.7 157L236.5 198.3ZM42.7998 131.1L224.5 219.2V442.5L42.7998 354.4V131.1ZM248.5 442.5V219.2L333.8 177.8V236.2C333.8 242.8 339.2 248.2 345.8 248.2C352.4 248.2 357.8 242.8 357.8 236.2V166.1L430.8 130.7V354L248.5 442.5Z" fill="black"/>
</g>
<defs>
<clipPath id="clip0">
<rect width="473.8" height="473.8" fill="white"/>
</clipPath>
</defs>
</svg>
