<svg width="32" height="32" viewBox="0 0 32 32" fill="none" xmlns="http://www.w3.org/2000/svg">
<g clip-path="url(#clip0)">
<path d="M30.2395 1.76026C29.0664 0.586825 27.653 0 26.0004 0H6.00021C4.34758 0 2.93415 0.586825 1.7605 1.76026C0.587069 2.9339 0.000244141 4.34726 0.000244141 5.99996V25.9999C0.000244141 27.6524 0.587069 29.0659 1.7605 30.2396C2.93415 31.4132 4.34758 32 6.00021 32H26.0001C27.6528 32 29.0662 31.4132 30.2393 30.2396C31.413 29.0659 31.9998 27.6525 31.9998 25.9999V5.99996C31.9997 4.34726 31.4129 2.93369 30.2395 1.76026ZM26.2079 24.2898C25.9162 24.9286 25.26 25.4844 24.2394 25.9569C23.2185 26.4294 22.312 26.6656 21.5201 26.6656C21.2979 26.6656 21.0617 26.6484 20.8117 26.6137C20.5618 26.5787 20.3503 26.5442 20.1767 26.5095C20.0032 26.4748 19.7737 26.4124 19.4892 26.322C19.2043 26.2319 18.9992 26.1622 18.8747 26.1137C18.7493 26.0652 18.5203 25.9784 18.1872 25.8535C17.8538 25.7281 17.6453 25.6517 17.5625 25.6245C15.2847 24.7907 13.0587 23.2874 10.8852 21.1139C8.7117 18.9399 7.20815 16.7144 6.37476 14.437C6.34718 14.3536 6.27078 14.1452 6.14564 13.8121C6.02071 13.4789 5.93366 13.2496 5.88506 13.1247C5.83675 12.9998 5.76721 12.7949 5.67688 12.5103C5.58661 12.2255 5.5243 11.9966 5.48949 11.8227C5.45461 11.6494 5.42017 11.4377 5.38536 11.1876C5.35063 10.9375 5.33333 10.7011 5.33333 10.4791C5.33333 9.68735 5.56954 8.78114 6.04187 7.76029C6.51414 6.73958 7.06958 6.08336 7.70858 5.79163C8.4447 5.48596 9.14609 5.33316 9.81282 5.33316C9.9654 5.33316 10.0767 5.34717 10.1459 5.3749C10.2155 5.40299 10.3301 5.5277 10.4899 5.74996C10.6497 5.97223 10.8232 6.25338 11.0107 6.59371C11.1982 6.93412 11.3823 7.26402 11.5628 7.58333C11.7433 7.90272 11.917 8.21854 12.0837 8.53129C12.2504 8.84353 12.3545 9.04171 12.3961 9.12475C12.4378 9.19458 12.5281 9.3263 12.6669 9.52091C12.8057 9.71523 12.9101 9.8886 12.9794 10.0415C13.0488 10.1943 13.0836 10.3402 13.0836 10.4791C13.0836 10.6877 12.941 10.941 12.6564 11.2394C12.3716 11.5381 12.0591 11.8125 11.7187 12.0626C11.3784 12.3127 11.066 12.5801 10.7813 12.8648C10.4968 13.1493 10.3543 13.382 10.3543 13.5626C10.3543 13.6598 10.3786 13.7743 10.4272 13.9063C10.4758 14.0385 10.521 14.1461 10.5627 14.2293C10.6043 14.3126 10.6704 14.4307 10.7606 14.5836C10.8508 14.7366 10.91 14.8337 10.9376 14.8754C11.7014 16.2504 12.58 17.4345 13.5728 18.4277C14.5661 19.421 15.75 20.2992 17.1251 21.0632C17.1665 21.0912 17.2639 21.1501 17.4173 21.2405C17.5699 21.3304 17.6883 21.3963 17.7714 21.438C17.8549 21.4797 17.9622 21.5249 18.0943 21.5731C18.2265 21.6216 18.3411 21.646 18.4387 21.646C18.6602 21.646 18.9659 21.4171 19.3552 20.9588C19.744 20.5001 20.1401 20.0454 20.5428 19.5939C20.9454 19.1429 21.2715 18.9172 21.522 18.9172C21.6608 18.9172 21.8063 18.9517 21.9597 19.0211C22.1126 19.0905 22.2858 19.1949 22.4801 19.3337C22.6749 19.4731 22.8067 19.563 22.8762 19.6052L23.9799 20.2087C24.7161 20.5978 25.3306 20.9414 25.8238 21.2401C26.317 21.5388 26.5845 21.7435 26.6262 21.8544C26.6539 21.9238 26.6674 22.0353 26.6674 22.1881C26.6669 22.8541 26.514 23.5556 26.2079 24.2898Z" fill="black"/>
</g>
<defs>
<clipPath id="clip0">
<rect width="32" height="32" fill="white"/>
</clipPath>
</defs>
</svg>
