<svg width="120" height="120" viewBox="0 0 120 120" fill="none" xmlns="http://www.w3.org/2000/svg">
<g clip-path="url(#clip0)">
<path d="M105.441 24.2967L60.3395 0.26442C59.6704 -0.0926809 58.8685 -0.0876692 58.2044 0.27695L14.3512 24.3092C13.6319 24.7039 13.1859 25.4582 13.1859 26.2789V57.6712C13.2122 83.4765 28.5011 106.822 52.145 117.161L58.232 119.813C58.8008 120.061 59.4486 120.062 60.0187 119.816L66.8776 116.854C90.96 106.739 106.627 83.1683 106.63 57.0485V26.2789C106.63 25.4494 106.173 24.6864 105.441 24.2967ZM102.139 57.0485C102.134 81.3677 87.5431 103.311 65.1197 112.722L65.1046 112.73L59.1316 115.309L53.9418 113.044C31.9331 103.422 17.7004 81.6922 17.6753 57.6712V27.6083L59.2983 4.79647L102.139 27.6246V57.0485Z" fill="white"/>
<path d="M42.7326 56.2153C41.9269 55.2718 40.5098 55.1603 39.5663 55.9659C38.6228 56.7704 38.5112 58.1887 39.3169 59.131L51.1777 73.0203C51.9696 73.9475 53.3566 74.0741 54.3014 73.3048L81.9247 50.8312C82.887 50.0493 83.0324 48.6347 82.2492 47.6724C81.4674 46.7114 80.0527 46.5648 79.0905 47.3479L53.1687 68.4357L42.7326 56.2153Z" fill="white"/>
</g>
<defs>
<clipPath id="clip0">
<rect width="120" height="120" fill="white"/>
</clipPath>
</defs>
</svg>
