<svg width="120" height="120" viewBox="0 0 120 120" fill="none" xmlns="http://www.w3.org/2000/svg">
<path d="M111.6 54.2257L108.492 41.7956C109.342 41.6152 109.979 40.8614 109.979 39.9584V37.9542C109.979 33.6028 106.439 30.0628 102.088 30.0628H87.9333V25.9289C87.9333 23.7877 86.1914 22.0458 84.0502 22.0458H11.8997C9.75844 22.0458 8.01656 23.7877 8.01656 25.9289V60C8.01656 61.0376 8.85773 61.879 9.89555 61.879C10.9331 61.879 11.7745 61.0378 11.7745 60V25.9289C11.7745 25.8598 11.8305 25.8037 11.8997 25.8037H84.0499C84.1191 25.8037 84.1751 25.8598 84.1751 25.9289V60.0005C84.1751 61.038 85.0163 61.8795 86.0541 61.8795C87.0916 61.8795 87.933 61.0383 87.933 60.0005V57.8705H110.098C110.1 57.8705 110.101 57.8709 110.103 57.8709C110.104 57.8709 110.106 57.8707 110.108 57.8707C112.835 57.8726 115.151 59.6627 115.946 62.1295H110.104C109.066 62.1295 108.225 62.9707 108.225 64.0085V68.0168C108.225 71.2631 110.866 73.9041 114.112 73.9041H116.242V82.1712H111.329C109.715 77.5111 105.285 74.1544 100.083 74.1544C94.8811 74.1544 90.4509 77.5111 88.8373 82.1712H87.9326V68.0166C87.9326 66.979 87.0914 66.1376 86.0536 66.1376C85.016 66.1376 84.1746 66.9787 84.1746 68.0166V82.1707H45.1915C43.5776 77.5106 39.1477 74.1539 33.9457 74.1539C28.7438 74.1539 24.3136 77.5106 22.6999 82.1707H11.8997C11.8305 82.1707 11.7745 82.1147 11.7745 82.0455V77.9119H19.9165C20.9541 77.9119 21.7955 77.0707 21.7955 76.0329C21.7955 74.9951 20.9543 74.1539 19.9165 74.1539H1.87898C0.841406 74.1539 0 74.9951 0 76.0329C0 77.0707 0.841172 77.9119 1.87898 77.9119H8.0168V82.0455C8.0168 84.1868 9.75867 85.9287 11.8999 85.9287H22.0493C22.0488 85.9704 22.046 86.0119 22.046 86.0538C22.046 92.6154 27.3844 97.9535 33.9457 97.9535C40.507 97.9535 45.8454 92.6154 45.8454 86.0538C45.8454 86.0116 45.8426 85.9704 45.8421 85.9287H88.1866C88.1862 85.9704 88.1834 86.0119 88.1834 86.0538C88.1834 92.6154 93.5217 97.9535 100.083 97.9535C106.644 97.9535 111.983 92.6154 111.983 86.0538C111.983 86.0116 111.98 85.9704 111.979 85.9287H118.121C119.158 85.9287 120 85.0875 120 84.0497V64.008C120 59.0599 116.349 54.9487 111.6 54.2257ZM87.9333 33.8205H102.088C104.367 33.8205 106.221 35.6749 106.221 37.9542V38.0794H87.9333V33.8205ZM87.9333 54.1127V41.8371H104.629L107.698 54.1127H87.9333ZM33.9457 94.1962C29.4563 94.1962 25.8038 90.544 25.8038 86.0543C25.8038 81.5646 29.4563 77.9123 33.9457 77.9123C38.4352 77.9123 42.0877 81.5646 42.0877 86.0543C42.0877 90.544 38.4352 94.1962 33.9457 94.1962ZM100.084 94.1962C95.5941 94.1962 91.9416 90.544 91.9416 86.0543C91.9416 81.5646 95.5941 77.9123 100.084 77.9123C104.573 77.9123 108.225 81.5646 108.225 86.0543C108.225 90.544 104.573 94.1962 100.084 94.1962ZM116.242 70.1461H114.113C112.939 70.1461 111.983 69.1908 111.983 68.0166V65.887H116.242V70.1461H116.242Z" fill="white"/>
<path d="M33.9457 82.1712C31.8045 82.1712 30.0626 83.913 30.0626 86.0543C30.0626 88.1955 31.8045 89.9374 33.9457 89.9374C36.087 89.9374 37.8288 88.1955 37.8288 86.0543C37.8288 83.913 36.087 82.1712 33.9457 82.1712Z" fill="white"/>
<path d="M100.084 82.1712C97.9423 82.1712 96.2004 83.913 96.2004 86.0543C96.2004 88.1955 97.9423 89.9374 100.084 89.9374C102.225 89.9374 103.967 88.1955 103.967 86.0543C103.967 83.913 102.225 82.1712 100.084 82.1712Z" fill="white"/>
<path d="M78.0375 74.1546H49.9791C48.9415 74.1546 48.1001 74.9958 48.1001 76.0336C48.1001 77.0714 48.9412 77.9126 49.9791 77.9126H78.0375C79.0751 77.9126 79.9165 77.0714 79.9165 76.0336C79.9165 74.9958 79.0753 74.1546 78.0375 74.1546Z" fill="white"/>
<path d="M29.9374 66.1378H5.88727C4.84969 66.1378 4.00828 66.979 4.00828 68.0168C4.00828 69.0546 4.84945 69.8958 5.88727 69.8958H29.9374C30.975 69.8958 31.8164 69.0546 31.8164 68.0168C31.8164 66.979 30.975 66.1378 29.9374 66.1378Z" fill="white"/>
<path d="M65.337 40.6336C64.6034 39.9 63.4134 39.9 62.6798 40.6338L45.9708 57.3427L37.2785 48.6504C36.5447 47.9166 35.355 47.9166 34.6214 48.6504C33.8876 49.3842 33.8876 50.5737 34.6214 51.3075L44.6423 61.3284C45.0091 61.6955 45.4901 61.8787 45.9708 61.8787C46.4515 61.8787 46.9327 61.6955 47.2992 61.3284L65.3367 43.2909C66.0705 42.5569 66.0705 41.3674 65.337 40.6336Z" fill="white"/>
</svg>
