<svg width="32" height="32" viewBox="0 0 32 32" fill="none" xmlns="http://www.w3.org/2000/svg">
<path d="M30.6745 21.6143C29.7218 20.4716 28.6006 19.4963 27.5397 18.4606C26.5827 17.5271 26.5223 16.9856 27.2917 15.9082C28.1314 14.7322 29.0344 13.6014 29.8816 12.4308C30.6726 11.3368 31.481 10.2457 31.8972 8.93585C32.1612 8.10249 31.9277 7.73439 31.0732 7.58848C30.9259 7.56294 30.7737 7.56161 30.6238 7.56161L25.5537 7.55565C24.9292 7.54636 24.584 7.81862 24.3632 8.37209C24.065 9.12023 23.7576 9.8677 23.4025 10.5896C22.5966 12.2265 21.6966 13.8087 20.4348 15.1484C20.1566 15.4439 19.8488 15.8173 19.3839 15.6634C18.8022 15.4512 18.6308 14.4928 18.6404 14.1688L18.6354 8.31671C18.5227 7.4807 18.3373 7.10796 17.5072 6.94547L12.2405 6.94646C11.5374 6.94646 11.1849 7.21806 10.8095 7.65778C10.593 7.91181 10.5276 8.07662 10.9727 8.16085C11.8468 8.32666 12.3393 8.89241 12.4699 9.76888C12.6795 11.1693 12.6649 12.5754 12.5442 13.9814C12.5087 14.392 12.4381 14.8015 12.2753 15.1849C12.0206 15.7874 11.6094 15.9101 11.0692 15.5394C10.58 15.2038 10.2365 14.7302 9.90022 14.2547C8.63708 12.4699 7.62928 10.5452 6.80753 8.52265C6.57009 7.93834 6.16054 7.58416 5.54141 7.57455C4.02026 7.55034 2.49879 7.54636 0.977653 7.57587C0.0623817 7.59312 -0.210541 8.03749 0.162199 8.8672C1.81897 12.5525 3.66311 16.1353 6.07034 19.3991C7.30629 21.0741 8.72529 22.5528 10.5585 23.6007C12.6361 24.7886 14.8725 25.1461 17.228 25.036C18.331 24.9843 18.6623 24.6974 18.7133 23.5981C18.7478 22.846 18.8331 22.0982 19.2041 21.4223C19.5683 20.7591 20.1197 20.6327 20.7555 21.0453C21.0735 21.2519 21.3414 21.5149 21.5945 21.7921C22.2153 22.4712 22.8138 23.171 23.4582 23.8272C24.2663 24.6497 25.2237 25.1355 26.4275 25.0363L31.0874 25.0373C31.8382 24.9882 32.2275 24.0677 31.7964 23.2297C31.4936 22.6427 31.0964 22.1201 30.6745 21.6143Z" fill="white"/>
</svg>
